<svg xmlns="http://www.w3.org/2000/svg" viewBox="0 0 120 120">
  <rect width="120" height="120" fill="#DCE8FA"/>
  <!-- 左：学ランの男子 -->
  <path d="M4 120c1-17 12-26 26-26s25 9 26 26z" fill="#2F3A56"/>
  <rect x="26" y="94" width="8" height="10" fill="#2F3A56"/>
  <circle cx="30" cy="112" r="2" fill="#E8C063"/>
  <circle cx="30" cy="70" r="20" fill="#F6D2B0"/>
  <path d="M10 66c0-16 9-24 20-24s20 8 20 24c-4-8-12-11-20-11s-16 3-20 11z" fill="#3A3A3A"/>
  <circle cx="23" cy="72" r="2.4" fill="#3A3A3A"/>
  <circle cx="37" cy="72" r="2.4" fill="#3A3A3A"/>
  <path d="M25 80q5 5 10 0" stroke="#3A3A3A" stroke-width="2.2" fill="none" stroke-linecap="round"/>
  <!-- 右：セーラー服の女子 -->
  <path d="M64 120c1-17 12-26 26-26s25 9 26 26z" fill="#FFFFFF"/>
  <path d="M74 96l16 12 16-12v6l-16 12-16-12z" fill="#2F3A56"/>
  <path d="M86 106l4 6 4-6z" fill="#C0513F"/>
  <path d="M68 70c0-18 10-28 22-28s22 10 22 28v18h-8v-14H76v14h-8z" fill="#5A3B2E"/>
  <circle cx="90" cy="70" r="19" fill="#F6D2B0"/>
  <path d="M71 66c2-12 10-18 19-18s17 6 19 18c-6-6-12-9-19-9s-13 3-19 9z" fill="#5A3B2E"/>
  <circle cx="83" cy="72" r="2.4" fill="#3A3A3A"/>
  <circle cx="97" cy="72" r="2.4" fill="#3A3A3A"/>
  <path d="M85 80q5 5 10 0" stroke="#3A3A3A" stroke-width="2.2" fill="none" stroke-linecap="round"/>
  <circle cx="80" cy="78" r="3" fill="#F4A6A0" opacity=".7"/>
  <circle cx="100" cy="78" r="3" fill="#F4A6A0" opacity=".7"/>
</svg>
